<svg xmlns="http://www.w3.org/2000/svg" id="Layer_1" data-name="Layer 1" viewBox="0 0 200 200"><defs><style>.cls-2{stroke-width:0;fill:#737373}</style></defs><path d="m190.99 49.32-2.21-28.83-13.76-13.67-16.53-.3-82.68 88.5c-8.63-3.08-18.18-3.92-27.82-1.96-28.14 5.72-46.31 33.18-40.59 61.33 5.73 28.15 33.19 46.32 61.33 40.59 27.84-5.66 45.91-32.59 40.76-60.41l22.03-21.91.54-15.67 16.17-1.46-.75-12.66 15.71-.45-.64-15.43 13.72-.05 14.71-17.63ZM49.83 169.55c-7.28 1.48-14.38-3.22-15.86-10.5-1.48-7.28 3.22-14.38 10.5-15.86 7.28-1.48 14.38 3.22 15.86 10.5 1.48 7.28-3.22 14.38-10.5 15.86Zm113-147.62L96.95 93.9c-.39.43-.93.65-1.48.65-.48 0-.97-.17-1.35-.52-.81-.75-.87-2.01-.12-2.83l65.88-71.97c.75-.81 2.01-.87 2.83-.12.81.75.87 2.01.12 2.83Z" class="cls-2"/><path d="M18 14h86v86H18z" style="fill:#fff;stroke-width:0"/><path d="M107 103H15V11h92v92Zm-86-6h80V17H21v80Z" style="stroke-width:0;fill:#e0e0e0"/><path d="M83.45 40.5c0-10.75-9.97-19.5-22.23-19.5s-22.23 8.75-22.23 19.5c0 2.44 2.25 4.42 5.03 4.42s5.03-1.98 5.03-4.42c0-5.88 5.46-10.67 12.16-10.67s12.16 4.79 12.16 10.67-5.39 10.6-12.01 10.67c-.31 0-.61.04-.91.09h-.05c-.31.06-.61.14-.9.24-.01 0-.03 0-.05.01-.28.1-.54.23-.8.38l-.06.03c-.24.14-.46.3-.66.48-.03.02-.06.04-.08.06-.19.16-.35.35-.5.53-.04.04-.08.08-.11.12-.13.17-.24.36-.34.55-.04.07-.09.13-.12.2-.08.17-.13.35-.19.54-.03.1-.08.19-.1.3-.04.16-.04.33-.06.49-.01.13-.04.25-.04.38V73.6c0 2.44 2.25 4.42 5.03 4.42s5.03-1.98 5.03-4.42V59.42c9.72-2.09 16.98-9.82 16.98-18.94Z" class="cls-2"/><circle cx="61.44" cy="86.42" r="6.08" class="cls-2"/></svg>