<?xml version="1.0" encoding="UTF-8"?>
<svg id="Layer_1" data-name="Layer 1" xmlns="http://www.w3.org/2000/svg" viewBox="0 0 200 200">
  <defs>
    <style>
      .cls-1 {
        fill: #737373;
        stroke-width: 0px;
      }
    </style>
  </defs>
  <path class="cls-1" d="m100.65,10.05c-20.15,0-36.55,16.4-36.55,36.55v55.14c0,20.15,16.4,36.55,36.55,36.55s36.55-16.4,36.55-36.55v-55.14c0-20.15-16.4-36.55-36.55-36.55Zm25.48,91.69c0,14.05-11.43,25.48-25.48,25.48-12.9,0-23.59-9.64-25.25-22.09h20.08c3.06,0,5.53-2.48,5.53-5.53s-2.48-5.53-5.53-5.53h-20.31v-13.06h20.31c3.06,0,5.53-2.48,5.53-5.53s-2.48-5.53-5.53-5.53h-20.31v-13.05h20.31c3.06,0,5.53-2.48,5.53-5.53s-2.48-5.53-5.53-5.53h-20.29c.42-13.68,11.68-24.68,25.46-24.68s25.48,11.43,25.48,25.48v55.14Z"/>
  <path class="cls-1" d="m154.31,109.09h0c-4.37,0-8.38,2.71-9.71,6.84-6.06,18.8-23.8,32.46-44.75,32.46s-39.59-14.37-45.19-33.92c-.9-3.16-3.75-5.38-7.06-5.38h0c-6.41,0-7.14,6.24-5.16,12.29,6.24,19.08,19.26,32.19,37.32,37.61-6.12,4.16-10.94,10.08-13.73,17.03-1.52,3.79,1.41,7.91,5.49,7.91h58.26c4.08,0,7.01-4.12,5.49-7.91-2.87-7.16-7.9-13.22-14.27-17.39,18.4-5.92,31.49-19.93,37.06-39.87,1.36-4.86,1.33-9.67-3.75-9.67Z"/>
</svg>