<?xml version="1.0" encoding="UTF-8"?>
<svg id="Layer_1" data-name="Layer 1" xmlns="http://www.w3.org/2000/svg" viewBox="0 0 200 200">
  <defs>
    <style>
      .cls-1 {
        fill: #737373;
        stroke-width: 0px;
      }
    </style>
  </defs>
  <g>
    <path class="cls-1" d="m81.53,169.59c-.72,0-1.44-.21-2.06-.64-1.14-.78-1.75-2.12-1.57-3.49l4.67-36.18c.55-4.24,2.06-8.38,4.36-11.98l59.76-93.22c.82-1.57,6.56-11.89,16.58-14.8,5.57-1.62,11.31-.7,17.06,2.75,5.52,3.31,8.95,7.84,10.22,13.47,2.59,11.54-5.18,23.37-5.51,23.87l-56.35,89.51c-3.45,5.49-8.29,10.03-13.98,13.13l-31.41,17.13c-.55.3-1.16.45-1.76.45ZM168.64,15.5c-1.14,0-2.27.16-3.38.48-7.67,2.21-12.36,11.32-12.4,11.42l-.18.32-59.85,93.36c-1.75,2.73-2.9,5.88-3.31,9.1l-3.83,29.69,25.67-14c4.64-2.53,8.59-6.24,11.41-10.71l56.4-89.58c.11-.17,6.5-9.96,4.55-18.55-.85-3.73-3.13-6.67-6.99-8.98-2.82-1.69-5.49-2.53-8.08-2.53Z"/>
    <path class="cls-1" d="m182.13,50.92c-.56,0-1.12-.13-1.65-.41l-34.42-18.39c-1.7-.91-2.35-3.03-1.44-4.74.91-1.71,3.03-2.35,4.74-1.44l34.42,18.39c1.7.91,2.35,3.03,1.44,4.74-.63,1.18-1.84,1.85-3.09,1.85Z"/>
    <path class="cls-1" d="m106.53,120.04c-.64,0-1.29-.17-1.87-.54-1.63-1.03-2.12-3.19-1.09-4.83l43.24-68.4c1.03-1.63,3.19-2.12,4.83-1.09,1.63,1.03,2.12,3.19,1.09,4.83l-43.24,68.4c-.67,1.05-1.8,1.63-2.96,1.63Z"/>
    <path class="cls-1" d="m119.13,127.96c-.64,0-1.29-.17-1.87-.54-1.63-1.03-2.12-3.19-1.09-4.83l43.2-68.4c1.03-1.63,3.19-2.12,4.83-1.09,1.63,1.03,2.12,3.19,1.09,4.83l-43.2,68.4c-.67,1.05-1.8,1.63-2.96,1.63Z"/>
    <path class="cls-1" d="m119.93,147.12c-.65,0-1.31-.18-1.89-.56l-30.4-19.6c-1.62-1.05-2.09-3.21-1.04-4.84,1.05-1.62,3.21-2.1,4.84-1.04l30.4,19.6c1.62,1.05,2.09,3.21,1.04,4.84-.67,1.04-1.79,1.6-2.94,1.6Z"/>
    <path class="cls-1" d="m83.76,163.47c-6.69,13.3-19.11,22.12-34.42,18.38-10.48-2.12-27.06-13.83-26.86-25.71,0-2.72,2.37-5.87,4.93-6.72,2.82-.97,6.92-2.38,9.62-3.5,3.02-1.22,5.95-2.58,8.55-4.18,1.93-1.23,4.62-3.12,5.34-4.96.14-.51.09-.31-.09-.68-1.76-2.77-5.81-5.03-8.85-6.76-5.65-3.1-11.77-5.71-17.76-8.34-3.09-1.33-6.21-2.64-9.37-4.07-.47-.18-.35-.97.16-.99,3.49-.31,6.98-.2,10.44.1,7.04.62,13.89,2.03,20.56,4.6,3.59,1.44,6.96,3.08,10.03,5.73,7.33,6.16,6.44,15.08-1.31,20.14-6.95,4.57-14.79,6.71-22.61,8.82-.34.08-1.51.38-1.86.47-.67.21-1.02.24-1.15.98-.13,3.83,2.94,7.75,5.61,10.78,6.37,6.8,15.49,11.95,25.03,11.44,10-.53,17.87-7.75,23.15-16.01.31-.53,1.17-.05.86.5h0Z"/>
  </g>
  <polygon class="cls-1" points="83.83 147.9 98.5 157.5 83.76 163.47 83.83 147.9"/>
</svg>