<?xml version="1.0" encoding="UTF-8"?><svg id="Layer_1" xmlns="http://www.w3.org/2000/svg" viewBox="0 0 766 200"><defs><style>.cls-1{letter-spacing:-.02em;}.cls-2{fill:#566777;}.cls-2,.cls-3,.cls-4,.cls-5{stroke-width:0px;}.cls-3{fill:#537ec0;}.cls-6{letter-spacing:-.01em;}.cls-7,.cls-8{font-family:MyriadPro-Regular, 'Myriad Pro';font-size:100px;}.cls-7,.cls-5{fill:#a0a0a0;}.cls-9{letter-spacing:-.07em;}.cls-8,.cls-4{fill:#fff;}.cls-10{letter-spacing:0em;}.cls-11{letter-spacing:0em;}.cls-12{fill:#6f93c6;stroke:#566777;stroke-miterlimit:10;stroke-width:6px;}</style></defs><rect class="cls-12" x="10" y="7" width="750" height="185" rx="16.05" ry="16.05"/><text class="cls-7" transform="translate(223.83 135)"><tspan class="cls-10" x="0" y="0">c</tspan><tspan x="44.2" y="0">on</tspan><tspan class="cls-6" x="154.6" y="0">f</tspan><tspan x="182.5" y="0">o</tspan><tspan class="cls-11" x="237.4" y="0">r</tspan><tspan x="270.5" y="0">m</tspan><tspan class="cls-1" x="353.9" y="0">s</tspan><tspan class="cls-9" x="391.1" y="0">T</tspan><tspan x="433.7" y="0">o</tspan></text><text class="cls-8" transform="translate(224.83 131)"><tspan class="cls-10" x="0" y="0">c</tspan><tspan x="44.2" y="0">on</tspan><tspan class="cls-6" x="154.6" y="0">f</tspan><tspan x="182.5" y="0">o</tspan><tspan class="cls-11" x="237.4" y="0">r</tspan><tspan x="270.5" y="0">m</tspan><tspan class="cls-1" x="353.9" y="0">s</tspan><tspan class="cls-9" x="391.1" y="0">T</tspan><tspan x="433.7" y="0">o</tspan></text><path class="cls-4" d="m108.3,100.8c-.04-4.56,0-25.63,0-25.63,0,0,.06-1.75,2.48-1.75h22.52s7.67-2.82,2.14-8.15c-5.53-5.34-2.04-7.38-.39-8.35s8.54-3.01,16.11,0c7.57,3.01,3.2,7.38,1.16,8.54s-3.69,2.52-3.11,4.47c.58,1.94,1.36,3.4,3.11,3.49s22.91,0,22.91,0c0,0,2.72.1,2.72,2.52v23.65s1.94,3.44,4.66,3.34,3.79-3.98,4.85-5.24,4.56-2.8,6.99,1.9,2.15,15.44,0,18.04c-1.46,1.77-3.25,3.5-5.28,2.44-2.04-1.07-2.76-1.07-3.84-3.93-.95-2.51-6.31-3.49-6.41.78-.1,4.27.19,24.27.19,24.27,0,0,1.16,2.52-2.33,2.91s-24.46,0-24.46,0c0,0-3.01-2.23-3.11-3.69s.68-4.47,3.11-5.63,4.76-3.4,1.17-5.82c-3.59-2.43-9.22-4.56-14.17-3.3-4.95,1.26-7.86,4.17-8.35,6.02-.49,1.84,2.91,3.4,4.27,4.08s4.85,7.38-.58,7.38c-5.44,0-23.88,0-23.88,0,0,0-2.04.29-2.33-2.52-.29-2.82-.1-21.16,0-22.72l-.15-17.08Z"/><path class="cls-5" d="m49.61,78.84c.79-5.04,4.71-28.26,4.71-28.26,0,0,.38-1.92,3.06-1.47l24.84,4.14s8.97-1.7,3.85-8.6c-5.12-6.9-.89-8.51,1.1-9.28s9.97-1.75,17.77,2.96c7.8,4.71,2.18,8.72-.28,9.63-2.46.91-4.53,2.11-4.25,4.35.29,2.25.87,4,2.78,4.42s25.26,4.21,25.26,4.21c0,0,2.98.61,2.53,3.28l-4.34,26.08s1.51,4.15,4.52,4.54,4.91-3.69,6.31-4.89c1.41-1.2,5.55-2.25,7.36,3.38s-.47,17.42-3.31,19.89c-1.93,1.68-4.22,3.27-6.28,1.72-2.05-1.55-2.85-1.68-3.51-5.04-.58-2.94-6.32-5.01-7.21-.32-.89,4.69-4.24,26.8-4.24,26.8,0,0,.82,3-3.1,2.78s-26.98-4.49-26.98-4.49c0,0-2.91-3.01-2.75-4.64s1.57-4.8,4.46-5.64,5.87-2.87,2.35-6.21c-3.52-3.34-9.33-6.72-15.02-6.24-5.69.48-9.44,3.16-10.31,5.1-.87,1.94,2.59,4.28,3.96,5.28s4,9.03-2,8.03-26.33-4.38-26.33-4.38c0,0-2.3-.05-2.11-3.21.2-3.16,3.78-23.35,4.17-25.05l2.97-18.87Z"/><path class="cls-3" d="m46.61,72.84c.79-5.04,4.71-28.26,4.71-28.26,0,0,.38-1.92,3.06-1.47l24.84,4.14s8.97-1.7,3.85-8.6c-5.12-6.9-.89-8.51,1.1-9.28s9.97-1.75,17.77,2.96c7.8,4.71,2.18,8.72-.28,9.63-2.46.91-4.53,2.11-4.25,4.35.29,2.25.87,4,2.78,4.42s25.26,4.21,25.26,4.21c0,0,2.98.61,2.53,3.28l-4.34,26.08s1.51,4.15,4.52,4.54,4.91-3.69,6.31-4.89c1.41-1.2,5.55-2.25,7.36,3.38s-.47,17.42-3.31,19.89c-1.93,1.68-4.22,3.27-6.28,1.72-2.05-1.55-2.85-1.68-3.51-5.04-.58-2.94-6.32-5.01-7.21-.32-.89,4.69-4.24,26.8-4.24,26.8,0,0,.82,3-3.1,2.78s-26.98-4.49-26.98-4.49c0,0-2.91-3.01-2.75-4.64s1.57-4.8,4.46-5.64,5.87-2.87,2.35-6.21c-3.52-3.34-9.33-6.72-15.02-6.24-5.69.48-9.44,3.16-10.31,5.1-.87,1.94,2.59,4.28,3.96,5.28s4,9.03-2,8.03-26.33-4.38-26.33-4.38c0,0-2.3-.05-2.11-3.21.2-3.16,3.78-23.35,4.17-25.05l2.97-18.87Z"/><path class="cls-2" d="m103.02,34.79c.23.17.4.36.56.56.17.19.36.38.46.58-.64-.95-1.83-1.8-3.05-2.55-1.27-.76-2.62-1.38-4.02-1.91-2.81-1.01-5.85-1.53-8.83-1.44,3.25-.01,6.66.69,9.75,2.07,1.53.69,3.07,1.55,4.34,2.5,1.27.96,2.05,2.15,1.87,2.83-.05.75-1.12,1.88-2.34,2.53-.15.07-.3.17-.45.23-.15.06-.26.12-.5.21-.42.16-.85.35-1.28.56-.85.42-1.72.93-2.52,1.77-.39.43-.74.95-.97,1.55-.24.6-.3,1.25-.26,1.83l.04.43.06.31.13.62c.09.42.21.84.37,1.27.31.84.8,1.77,1.66,2.42.42.32.89.55,1.36.68.51.14.82.13,1.15.16,1.02.71,14.21,3.16,14.51,3.07,2.77.38,5.56.76,8.39,1.15-1.94-.28-3.87-.56-5.8-.83,1.92.28,3.85.55,5.8.83l1.68.24h.05s.13.04.13.04c.09.03.18.06.26.09.18.07.33.16.46.24.26.19.4.36.48.55.03.1.05.22.06.37,0,.08-.01.16-.02.24l-.06.42c-.35,2.27-.7,4.55-1.06,6.86-.76,4.61-1.52,9.3-2.3,14.06-.2,1.19-.4,2.38-.61,3.58-.02.41-.51,1.65.15,2.55.29.64.63,1.22,1.03,1.8.79,1.13,1.89,2.28,3.53,2.81.8.24,1.76.27,2.6.03.85-.24,1.56-.67,2.13-1.15,1.15-.95,1.94-2.05,2.69-2.98.38-.47.71-.86.97-1.01.32-.2.75-.36,1.17-.42.84-.13,1.57.13,2.19.72.63.58,1.09,1.56,1.42,2.6.69,2.25.73,6.23-.09,10.54-.22,1.08-.45,2.19-.8,3.28-.33,1.09-.73,2.2-1.25,3.13-.25.47-.55.87-.78,1.1-.39.36-.9.76-1.34,1.07-.45.32-.91.58-1.32.73-.41.15-.73.17-.97.12-.12-.03-.24-.08-.37-.16-.08-.07-.09-.05-.25-.17l-.41-.31c-.54-.4-1.06-.76-1.33-1.04-.27-.28-.42-.53-.59-1-.16-.45-.29-1.01-.41-1.58-.22-1.04-.75-1.87-1.35-2.51-.6-.66-1.31-1.1-2.06-1.46-.75-.35-1.59-.55-2.47-.58-.89-.02-1.87.23-2.7.75-.82.55-1.4,1.34-1.73,2.09-.21.39-.25.74-.37,1.11l-.07.27-.03.2-.07.4c-.18,1.06-.35,2.08-.51,3.05-.33,1.93-.62,3.64-.86,5.06-.28,1.64-.55,3.28-.84,4.94q.48-2.75.97-5.5c-.93,6.72-1.78,12.83-2.6,18.72,0,.13,0,.25.02.36.01.13.02.25.03.36,0,.04.01.1,0,.14.01-.05,0-.12.02-.15,0-.12,0-.24,0-.36,0-.12,0-.24,0-.36.08-.33.16-.67.27-1.16.1-.46.23-1.07.42-1.98l-.55,3.15v.07c0,.08,0,.16.02.27.01.1.02.2.04.34.04.2.05.42.01.57-.06.17-.16.34-.39.44-.48.29-1.58.24-2.67.12-2.24-.25-4.51-.6-5.98-.79.67,0-1.72-.42-3.84-.8l.82.22c-5.2-.92-10.96-1.94-16.26-2.87-.13-.12-.7-.77-1.06-1.26-.39-.52-.75-1.05-.97-1.54-.12-.24-.18-.49-.21-.62,0-.08-.01-.14,0-.24.01-.12.04-.25.07-.38.12-.52.33-1.04.58-1.52.42-.79.88-1.26,1.18-1.49.34-.34.71-.63,1.11-.86.2-.1.41-.21.63-.27l.86-.3c.6-.22,1.19-.5,1.77-.86.57-.36,1.15-.81,1.6-1.48-.08.17.22-.11.48-.77.05-.17.13-.35.16-.56.03-.2.04-.42.06-.64-.03-.43-.11-.87-.25-1.21-.27-.71-.61-1.16-.68-1.28-.09-.1.14.02.68,1-.41-.78-.93-1.39-1.46-1.9-.53-.51-1.04-.93-1.58-1.37-1.07-.86-2.2-1.64-3.38-2.33-2.35-1.37-4.91-2.4-7.56-2.72-1.31-.21-2.69-.25-4.02-.11-1.32.14-2.63.4-3.92.8-1.28.41-2.54.96-3.71,1.69-.58.38-1.15.79-1.68,1.29-.53.52-1,1.02-1.41,1.86-.39.78-.24,1.79.13,2.48.34.68.79,1.19,1.24,1.65.9.9,1.94,1.64,2.86,2.29,1.16,1.24,2.14,4.98.88,6.11-.13.16-.35.22-.56.31-.24.05-.5.09-.77.1-.3-.03-.57-.03-.89-.07l-1.02-.16-4.08-.64c-5.44-.84-10.88-1.68-16.27-2.51l.44.13c-1.82-.26-3.59-.51-5.37-.77h-.03s-.03,0-.03,0c-.39-.02-.88-.22-1.17-.56-.32-.33-.49-.82-.57-1.33-.14-1.03.09-2.22.21-3.39.3-2.36.69-4.86,1.19-7.61.71-5.55,2.03-13.43,2.13-15.66.96-6.39,1.2-8.97,2.1-15.24-.41,1.59.77-6.11.16-3.05-.87,4.12-.72,4.38-1.45,7.88l.07-.1-1.72,10.05c-.63,3.26-1.31,6.67-1.91,10-.62,3.35-1.22,6.72-1.79,10.1-.28,1.7-.56,3.38-.79,5.13-.09.87-.26,1.99.19,3.24.22.61.62,1.26,1.21,1.72.29.23.61.42.95.55.17.07.34.12.52.16.2.04.31.07.64.09l-.22-.02c3.05.52,6.12,1.05,9.19,1.58,4.53.7,9.2,1.46,13.93,2.25l1.78.3.89.15c.29.05.57.1.99.13.73.08,1.58.1,2.48-.24.23-.09.45-.18.67-.29.21-.15.41-.31.61-.47.21-.16.35-.36.49-.56.13-.2.3-.41.38-.62.38-.85.49-1.68.48-2.43,0-.76-.11-1.46-.27-2.14-.17-.68-.37-1.33-.67-1.98-.13-.32-.32-.66-.51-.99l-.38-.54-.57-.56c-.53-.38-.91-.65-1.33-.98-.41-.32-.79-.64-1.13-.97-.33-.33-.64-.67-.82-.96-.08-.12-.16-.32-.15-.31-.02-.06-.02-.12-.01-.18,0-.03.01-.06.03-.09,0,0,.06-.13.14-.23.06-.11.16-.22.25-.33.19-.22.42-.45.66-.66.5-.43,1.08-.81,1.69-1.15,1.24-.68,2.63-1.16,4.06-1.47.72-.16,1.45-.26,2.18-.33.7-.05,1.41-.06,2.13,0,1.43.12,2.85.48,4.22.98,2.74,1.02,5.25,2.64,7.34,4.5,1.05.88,1.68,1.91,1.47,2.36-.06.27-.34.63-.77.94-.43.31-.96.57-1.51.79-.28.12-.49.17-.83.29-.36.11-.69.25-1.01.41-.63.32-1.17.71-1.65,1.14-.93.87-1.64,1.84-2.16,3.02-.24.65-.45,1.23-.53,2.11-.03.48.07,1.05.21,1.4.13.4.3.72.47,1.04.35.62.74,1.17,1.15,1.7.21.26.42.52.64.78l.44.49.55.58c4.3.77,8.87,1.58,13.47,2.4,4.47.75,8.9,1.55,13.32,2.04-.23-.02-.43-.05-.57-.07,1.1.1,2.29.31,3.69-.14.71-.23,1.46-.79,1.82-1.5.2-.35.32-.74.38-1.14.05-.38.05-.72,0-1.08v-.07s0-.05,0-.07c.26-1.53.52-3.03.78-4.57.26-1.58.52-3.2.8-4.95-.05.02.09-.87.13-1.31.09-.24.44-2.48.93-5.73.24-1.63.51-3.51.81-5.52.15-1.01.3-2.04.45-3.1l.11-.79c.04-.26.07-.57.13-.73.09-.4.22-.77.43-1.01.35-.52,1-.71,1.79-.61.78.12,1.57.56,2.1,1.11.23.29.46.58.52.87.05.09.11.44.17.66.06.25.13.51.2.76.15.5.34,1.02.6,1.51.27.5.64.96,1.02,1.31.77.69,1.43,1.07,1.98,1.5.7.55,1.62.84,2.35.84.74,0,1.31-.15,1.71-.3.4-.15.66-.27.8-.33.61-.33,1.17-.72,1.71-1.14.33-.25.63-.5.94-.76.3-.3.72-.68.93-1.04.26-.36.49-.73.67-1.1.21-.37.38-.75.53-1.12.64-1.51,1.1-3.04,1.47-4.59.71-3.1,1.11-6.24.98-9.43-.06-1.57-.32-3.25-.94-4.8-.16-.39-.35-.77-.55-1.15-.24-.37-.44-.75-.76-1.1-.56-.71-1.33-1.34-2.24-1.71-.9-.38-1.9-.48-2.82-.35-.93.14-1.77.43-2.58,1-.85.64-1.24,1.26-1.68,1.79-.42.54-.8,1.04-1.19,1.48-.64.81-1.38,1.45-2.04,1.62-.64.18-1.44-.07-2.06-.51-.54-.51-.84-.89-1.17-1.3-.16-.21-.33-.44-.5-.73-.09-.15-.18-.31-.27-.49-.06-.15-.11-.21-.13-.34l.08-.23c.04-.17.08-.34.12-.5.08-.33.15-.65.22-.96.13-.62.26-1.2.37-1.72.22-1.05.37-1.9.46-2.48.18-1.17.12-1.28-.2.16.71-4.64,1.53-9.28,2.2-13.4.28-1.91.57-3.82.86-5.75.03-.21.06-.4.09-.58.03-.17.06-.35.08-.59.03-.22.04-.43.02-.64,0-.21-.03-.41-.07-.6-.16-.77-.52-1.35-.89-1.8-.54-.51-1.06-.78-1.5-.97-.22-.09-.43-.16-.63-.22-.09-.03-.22-.06-.33-.08-.08-.01-.16-.03-.24-.04-.54-.1-.91-.17-1.29-.24-.76-.15-1.54-.32-3.72-.7-1.03-.32-11.01-1.59-12.24-1.84l.72.1c-2.53-.43-4.62-.86-6.69-1.28-.52-.11-1.04-.21-1.56-.32-.44-.1-.62-.22-.83-.42-.4-.36-.71-1.24-.88-2.36-.03-.18-.06-.41-.08-.58,0-.12-.01-.24,0-.35.03-.21.09-.39.22-.58.25-.39.83-.81,1.5-1.16.34-.17.71-.34,1.09-.49l.6-.23c.25-.1.51-.2.74-.32.94-.47,1.8-1.05,2.58-1.81.77-.76,1.5-1.77,1.75-3.08.04-.33.08-.66.08-.99-.03-.33-.08-.65-.13-.98-.2-.6-.42-1.2-.76-1.65-1.29-1.93-3.03-2.94-4.66-3.88-3.32-1.86-7.02-2.93-10.67-3.23-1.83-.16-3.65-.12-5.46.15-.46.08-.91.16-1.39.29-.23.06-.52.16-.74.24l-.62.25c-.84.35-1.78.82-2.56,1.67-.01.11.67-.63,1.48-1.07.8-.46,1.59-.73,1.69-.66-.92.35-2,.81-2.93,1.7-.44.47-.88,1.03-1.08,1.69-.25.65-.29,1.32-.27,1.95.09,1.25.51,2.3.97,3.26.24.48.51.92.77,1.38l.86,1.27.67,1.07c.16.35.33.71.44,1.05.2.69.17,1.26-.05,1.75-.43,1.01-2.03,1.89-3.62,2.3-.14.03-.1.02-.16.02l-.05-.02s0,0-.04-.01l-.13-.03c-.36-.07-.71-.15-1.04-.22-.66-.15-1.23-.27-1.54-.35-2.42-.46-1.45-.17-3.22-.48l-.22-.18c-2.62-.32-3.77-.79-6.23-1.14-.14.03-1.03-.11-1.9-.26-.02-.15-2.68-.44-2.53-.55h-.03c-.52-.08-.9-.14-1.53-.27-.5-.06-3.1-.37-5.7-.69-.28-.03-.75-.1-1.2-.09-.45,0-.94.06-1.42.2-.99.28-1.91,1.06-2.28,1.91-.1.21-.18.42-.23.63-.05.21-.07.44-.08.52-.03.22-.05.43-.07.6-.04.36-.07.61-.08.74l-.1.47c-.23,1.4-.22,2.01-.06,1.2l-.29,1.72.02-.2-.29,1.71c-.07.31-.19.66-.18.16-.11.98-.26,2.07-.45,3.04.54-2.68,1.23-6.01,1.84-8.81-.14,1.17-.57,3.25-.76,4.51-.35,1.48-.94,4.55-1.41,6.94-.08.53.02.92-.25,2.1-.21.57-.22,1.35-.47,2.33.13-1.15.34-2.27.54-3.42-.17.18-.56,2.8-.75,3.71-.03.44-.45,2.66-.64,4.08-.03-.63-.27,1.12-.48,1.94-.17.95-.22,1.56-.11,1.18.09.33.71-3.76.64-2.41-.13.34-.41,2.2-.57,3.2.07.02.17-.67.14-.01-.2,1.11-.31,2.3-.49,2.93.01-.21.1-.67.16-.99-.25,1.45.81-7.92.54-6.04.15-.48-.92,8.31-.75,7.35.18-.88.03.65.21-.26l.08-1.03c.24-1.24.45-1.73.43-1.29-.36,2.09.47-6.02.25-4.22l.16-.72c-.08.77-.37,2.8-.58,3.56.07.02-.07,1.04-.18,1.89l-.06.3c-.11.88-.33,2.1-.13,1.55.84-5.13.2,3.49,1.07-1.47-.51,2.06-.05-.73.29-2.92.09-.2.34-1.16.64-2.73.21-1.36.07-.81.07-1.08.16-.75.43-2.19.49-1.98.07-1.08.35-1.68.52-2.96.14-1.13-.06.07.02-.73.29-1.68.71-4.03.94-5.37.17-.5.58-2.06.51-.89-.44,2.55-.05-1.01-.46,1.65.38-1.11-.34,2.36-.28,2.86.23-.83.51-2.55.73-3.98l-.07.28c.19-1.27.57-3.8.9-5.15.01.33.16-.26.02.68l.3-1.74c.02-.22.03-.45-.07.04.08-.82.25-1.66.39-2.25.02-.02.09-.59.71-1.03.3-.22.75-.35,1.26-.37.5-.03,1.06.08,1.64.15,2.27.3,4.47.58,4.33.58,1.25.21,1.54.36,2.77.49.02,0-.16-.04-.47-.09-.32-.05-.77-.12-1.32-.2-1.09-.16-2.55-.37-3.96-.57-1.41-.17-2.79-.51-3.57-.29-.79.22-.98.59-.73.34.09-.06.33-.21.73-.3.41-.1.95-.09,1.65.03,1.4.2,3.17.46,4.93.71,3.53.5,7.02,1.01,7.39,1.14.93.15,2.05.32,1.85.21,1.56.3-.49.06.61.31.03,0-.09-.05.27.01l1.06.27c1.23.15,2.73.41,4.24.66.76.12,1.52.25,2.25.37.37.05.73.11,1.07.16.18.02.35.05.52.07.18.02.36.07.53,0-.19.1-.41.03-.64.03-.21-.01-.45-.02-.7-.04-.52-.03-1.15-.09-1.97-.19l-.28-.08c-.24-.02-1.59-.22-1.57-.14,1.56.31,2.88.51,4.55.72.37.15.85.02,1.1-.03,0,0-.04,0-.03-.02.56-.11.5-.1.31,0-.03.01-.06.03-.11.05.51-.06,2.15-.5,3.64-1.86.73-.67,1.38-1.67,1.48-2.75.08-1.05-.14-2.03-.46-2.73-.2-.41-.22-.43-.25-.47-.04-.03-.04-.13-.37-.58-.2-.33-.4-.65-.58-.96-.18-.28-.36-.55-.53-.82-.36-.52-.62-1.07-.91-1.6-.51-1.06-.93-2.27-.65-3.45.08-.37.14-.58.12-.58-.03-.01-.19.16-.35.63.15-.64.54-1.19,1.09-1.6-.59.71.07.06.94-.32.89-.37,1.89-.64.87-.13.14-.04.38-.13.56-.17.18-.06.42-.11.68-.17.53-.11,1.15-.21,1.77-.28.12-.06.3-.22,1.88-.24,2.2.14,1.68.09,3.47.39.41.14-.25.07-.18.15.69.07,1.19.16,1.57.26.39.09.68.17.95.28.56.2,1.08.4,2.32.82.38.15.85.33,1.35.52.48.22.99.45,1.46.67.91.47,1.64.85,1.69.83.92.58,1.28.95,1.43,1.13.15.18.08.18-.04.16Z"/></svg>