<?xml version="1.0" encoding="UTF-8"?>
<svg id="Layer_1" data-name="Layer 1" xmlns="http://www.w3.org/2000/svg" xmlns:xlink="http://www.w3.org/1999/xlink" viewBox="0 0 200 200">
  <defs>
    <clipPath id="clippath">
      <circle class="cls-2" cx="-114.87" cy="320" r="98.13"/>
    </clipPath>
  </defs>
  <g>
    <circle class="cls-2" cx="-114.87" cy="320" r="98.13"/>
  </g>
  <path class="cls-1" d="m189.99,49.8l-2.21-28.83-13.76-13.67-16.53-.3-82.68,88.5c-8.63-3.08-18.18-3.92-27.82-1.96C18.85,99.26.68,126.72,6.4,154.87c5.73,28.15,33.19,46.32,61.33,40.59,27.84-5.66,45.91-32.59,40.76-60.41l22.03-21.91.54-15.67,16.17-1.46-.75-12.66,15.71-.45-.64-15.43,13.72-.05,14.71-17.63ZM48.83,170.03c-7.28,1.48-14.38-3.22-15.86-10.5-1.48-7.28,3.22-14.38,10.5-15.86,7.28-1.48,14.38,3.22,15.86,10.5,1.48,7.28-3.22,14.38-10.5,15.86ZM161.83,22.41l-65.88,71.97c-.39.43-.93.65-1.48.65-.48,0-.97-.17-1.35-.52-.81-.75-.87-2.01-.12-2.83L158.88,19.71c.75-.81,2.01-.87,2.83-.12.81.75.87,2.01.12,2.83Z"/>
</svg>