<?xml version="1.0" encoding="UTF-8"?><svg id="Layer_1" xmlns="http://www.w3.org/2000/svg" viewBox="0 0 200 200"><defs><style>.cls-1{fill:#737373;stroke-width:0px;}</style></defs><path class="cls-1" d="m44.6,61.66c3.57-.28,7.28.98,10.19,3.47,2.74,2.34,4.38,5.45,4.64,8.75.2,2.59.14,5.14.08,7.6-.02.7-.03,1.39-.04,2.09-.04,2.64-.09,5.28-.15,7.92-.03,1.49-.06,2.98-.09,4.48,2.44-3.02,4.88-6.05,7.31-9.08,1.4-1.75,2.8-3.5,4.2-5.24,1.84-2.3,3.68-4.6,5.53-6.89,1.84-2.29,3.69-4.57,5.54-6.85,2.21-2.73,4.41-5.45,6.61-8.18,2.02-2.51,4.02-5.02,6.03-7.53,2.01-2.52,4.02-5.04,6.04-7.56l2.01-2.5c3.4-4.24,6.92-8.62,10.45-12.89,2.94-3.56,6.97-5.23,11.33-4.7,2.95.36,5.9,2.16,7.9,4.82,1.78,2.37,2.51,5.1,2.08,7.69-.37,2.24-1.34,4.4-2.95,6.62-1.01,1.39-2.03,2.76-3.06,4.14-1.43,1.92-2.92,3.91-4.31,5.88-4.1,5.79-8.28,11.77-12.77,18.29-2.23,3.24-4.47,6.53-6.69,9.81,1.57-1.48,3.13-2.96,4.7-4.44,3.91-3.69,7.82-7.38,11.72-11.07,3.27-3.1,6.54-6.21,9.81-9.31,4.22-4.01,8.45-8.03,12.68-12.03l.53-.51c1.25-1.19,2.67-2.55,4.41-3.58,3.85-2.29,8.2-2.15,11.93.37,3.69,2.5,5.49,6.27,5.07,10.62-.28,2.82-1.56,5.34-3.93,7.7-4.91,4.92-9.83,9.84-14.75,14.75l-18.75,18.74c1.41-1,2.83-2,4.24-3,1.9-1.35,3.79-2.7,5.68-4.05,2.04-1.46,4.08-2.91,6.12-4.36,4.15-2.94,8.3-5.88,12.47-8.79,2.31-1.61,5.47-3.43,9.5-3.19,5.61.33,10.3,4.98,10.24,10.17-.04,2.97-1.32,5.75-3.61,7.83-1.71,1.55-3.49,3.02-5.21,4.44-.55.45-1.1.91-1.65,1.36-2.72,2.26-5.44,4.52-8.16,6.78l-7.46,6.19c-3.23,2.68-6.46,5.36-9.68,8.04-3.71,3.09-7.4,6.19-11.09,9.3-.05.04-.11.09-.16.13,1.37-.6,2.74-1.2,4.08-1.8l10.2-4.48c6.03-2.65,12.07-5.29,18.1-7.93,2.75-1.2,5.31-1.63,7.83-1.3,3.61.46,6.41,2.27,7.67,4.97.72,1.53,1.54,4.7-1.01,8.74-1.08,1.71-2.74,3.27-4.94,4.62-3.51,2.17-7.05,4.12-10.66,6.09-3.41,1.86-6.83,3.69-10.25,5.53-3.72,2-7.44,4-11.15,6.02-5.4,2.95-10.69,6.41-15.72,10.27l-.79.61c-5.85,4.49-11.9,9.14-18.41,13.12-4.97,3.04-9,5.09-13.05,6.65-7.34,2.83-14.12,3.86-20.75,3.16-7.08-.75-13.72-3.64-19.73-8.61-1.38-1.14-2.7-2.34-3.98-3.61-2.43-2.43-4.66-5.1-6.67-7.98-3.59-5.16-6.13-11.04-7.55-17.51-1.51-6.9-1.73-13.82-1.74-20.28-.01-8.84.06-18.12.23-27.59.07-4.18.26-8.4.44-12.48.07-1.68.15-3.35.21-5.03.28-6.97,6.03-12.87,13.09-13.43Z"/></svg>